<?xml version="1.0" encoding="UTF-8" standalone="no"?>
<!-- Created with Inkscape (http://www.inkscape.org/) -->

<svg
   xmlns:dc="http://purl.org/dc/elements/1.1/"
   xmlns:cc="http://creativecommons.org/ns#"
   xmlns:rdf="http://www.w3.org/1999/02/22-rdf-syntax-ns#"
   xmlns:svg="http://www.w3.org/2000/svg"
   xmlns="http://www.w3.org/2000/svg"
   xmlns:sodipodi="http://sodipodi.sourceforge.net/DTD/sodipodi-0.dtd"
   xmlns:inkscape="http://www.inkscape.org/namespaces/inkscape"
   width="236.13718mm"
   height="51.323521mm"
   viewBox="0 0 236.13718 51.323521"
   version="1.1"
   id="svg5312"
   inkscape:version="0.92.0 r"
   sodipodi:docname="ribbon.svg">
  <defs
     id="defs5306">
    <clipPath
       clipPathUnits="userSpaceOnUse"
       id="clipPath4244">
      <path
         d="M 0,800 H 800 V 0 H 0 Z"
         id="path4242"
         inkscape:connector-curvature="0" />
    </clipPath>
    <clipPath
       clipPathUnits="userSpaceOnUse"
       id="clipPath4376">
      <path
         d="M 0,800 H 800 V 0 H 0 Z"
         id="path4374"
         inkscape:connector-curvature="0" />
    </clipPath>
  </defs>
  <sodipodi:namedview
     id="base"
     pagecolor="#ffffff"
     bordercolor="#666666"
     borderopacity="1.0"
     inkscape:pageopacity="0.0"
     inkscape:pageshadow="2"
     inkscape:zoom="0.35"
     inkscape:cx="320.5292"
     inkscape:cy="-203.75371"
     inkscape:document-units="mm"
     inkscape:current-layer="g4372"
     showgrid="false"
     fit-margin-top="0"
     fit-margin-left="0"
     fit-margin-right="0"
     fit-margin-bottom="0"
     inkscape:window-width="2560"
     inkscape:window-height="1550"
     inkscape:window-x="0"
     inkscape:window-y="25"
     inkscape:window-maximized="1" />
  <metadata
     id="metadata5309">
    <rdf:RDF>
      <cc:Work
         rdf:about="">
        <dc:format>image/svg+xml</dc:format>
        <dc:type
           rdf:resource="http://purl.org/dc/dcmitype/StillImage" />
        <dc:title></dc:title>
      </cc:Work>
    </rdf:RDF>
  </metadata>
  <g
     inkscape:label="Layer 1"
     inkscape:groupmode="layer"
     id="layer1"
     transform="translate(-21.02665,-43.599976)">
    <g
       transform="matrix(0.35277777,0,0,-0.35277777,-4.8002434,280.57836)"
       id="g4238">
      <g
         id="g4240"
         clip-path="url(#clipPath4244)">
        <g
           id="g4346"
           transform="translate(595.6,638.58)">
          <path
             d="m 0,0 c 0.44,-18.91 0.83,-37.83 1.4,-56.74 -3.5,2.45 -8.48,3.36 -12.71,3.66 -13.61,0.98 -27.35,1.03 -40.98,1.42 -27.76,0.81 -55.53,1.3 -83.31,1.48 -56.12,0.38 -112.25,-0.52 -168.34,-2.67 -15.61,-0.6 -31.22,-1.28 -46.82,-2.11 -7.21,-0.38 -15.16,0.07 -22.23,-1.37 -1.76,-0.36 -3.64,-1.11 -4.76,-2.35 -0.56,0.08 -1.18,-0.18 -1.49,-0.83 -0.31,16.18 -0.58,32.29 0.38,48.47 0.51,8.38 0.15,18.12 2.78,26.15 2.55,7.76 10.44,10.11 17.79,10.83 8.33,0.82 16.83,0.58 25.2,0.78 8.95,0.21 17.9,0.42 26.86,0.63 17.93,0.43 35.86,0.86 53.79,1.26 72.06,1.62 144.22,2.68 216.24,-1.01 4.92,-0.25 9.83,-0.51 14.75,-0.8 4.45,-0.26 9.41,-0.21 13.51,-2.2 C 1,20.27 -0.2,8.32 0,0"
             style="fill:#f6f6f6;fill-opacity:1;fill-rule:nonzero;stroke:none"
             id="path4348"
             inkscape:connector-curvature="0" />
        </g>
        <g
           id="g4358"
           transform="translate(493.0872,637.8227)" />
      </g>
    </g>
    <g
       transform="matrix(0.35277777,0,0,-0.35277777,15.610471,274.53074)"
       id="g4370">
      <g
         id="g4372"
         clip-path="url(#clipPath4376)">
        <g
           id="g4378"
           transform="translate(537.20285,553.61715)">
          <path
             d="M 0,0 C 0.66,2.48 1.2,5.51 0.79,8.09 1.26,7.71 1.69,7.29 2.06,6.83 2.07,6.78 2.07,6.73 2.07,6.68 2.09,5.97 2.51,5.52 3.03,5.33 3.17,5.04 3.29,4.74 3.4,4.43 2.74,2.56 1.53,1.14 0,0"
             style="fill:#f6f6f6;fill-opacity:1;fill-rule:nonzero;stroke:none"
             id="path4380"
             inkscape:connector-curvature="0" />
        </g>
        <g
           id="g4382"
           transform="translate(536.51285,562.70715)">
          <path
             d="m 0,0 c -0.14,-1.47 0.13,-2.99 0.1,-4.48 -0.04,-1.68 -0.22,-3.37 -0.46,-5.04 -0.01,-0.09 0.01,-0.17 0.04,-0.25 -0.85,-0.51 -1.76,-0.97 -2.72,-1.36 0.34,4.07 0.72,8.42 0.26,12.35 C -1.8,0.9 -0.87,0.5 0,0"
             style="fill:#f6f6f6;fill-opacity:1;fill-rule:nonzero;stroke:none"
             id="path4384"
             inkscape:connector-curvature="0" />
        </g>
        <g
           id="g4386"
           transform="translate(529.07285,550.67715)">
          <path
             d="M 0,0 C -0.03,4.76 0.6,9.45 0.69,14.18 1.64,14.03 2.6,13.83 3.55,13.58 2.89,9.44 3.17,4.81 3.39,0.52 2.18,0.08 0.92,-0.29 -0.32,-0.61 l -0.04,0.16 C -0.17,-0.42 0,-0.27 0,0"
             style="fill:#f6f6f6;fill-opacity:1;fill-rule:nonzero;stroke:none"
             id="path4388"
             inkscape:connector-curvature="0" />
        </g>
        <g
           id="g4390"
           transform="translate(528.11285,550.67715)">
          <path
             d="m 0,0 c 0.03,-0.34 0.34,-0.5 0.6,-0.45 l 0.04,-0.16 c -1.22,-0.32 -2.42,-0.59 -3.55,-0.86 0.63,5.13 0.66,10.97 0.19,16.1 0.72,-0.05 1.43,-0.1 2.14,-0.17 0.32,-0.03 0.64,-0.06 0.96,-0.1 C -0.65,9.8 -0.4,4.6 0,0"
             style="fill:#f6f6f6;fill-opacity:1;fill-rule:nonzero;stroke:none"
             id="path4392"
             inkscape:connector-curvature="0" />
        </g>
        <g
           id="g4394"
           transform="translate(524.14285,565.40715)">
          <path
             d="m 0,0 c -0.48,-5.22 -0.45,-11.2 0.21,-16.4 -0.3,-0.07 -0.6,-0.15 -0.89,-0.22 -0.99,-0.25 -1.99,-0.49 -2.99,-0.74 0.18,5.81 0.44,11.74 0.18,17.53 C -2.32,0.13 -1.16,0.07 0,0"
             style="fill:#f6f6f6;fill-opacity:1;fill-rule:nonzero;stroke:none"
             id="path4396"
             inkscape:connector-curvature="0" />
        </g>
        <g
           id="g4398"
           transform="translate(519.36285,565.62715)">
          <path
             d="m 0,0 c -0.47,-5.86 -0.24,-11.95 0.07,-17.83 -1.54,-0.37 -3.07,-0.74 -4.6,-1.11 0.78,6.1 0.67,12.95 0.41,19.06 C -2.75,0.09 -1.37,0.05 0,0"
             style="fill:#f6f6f6;fill-opacity:1;fill-rule:nonzero;stroke:none"
             id="path4400"
             inkscape:connector-curvature="0" />
        </g>
        <g
           id="g4402"
           transform="translate(513.85285,565.77715)">
          <path
             d="m 0,0 c -0.61,-6.08 -0.8,-13.21 0.22,-19.27 -1.42,-0.35 -2.85,-0.71 -4.27,-1.08 0.49,2.82 0.82,5.66 1.06,8.51 0.28,3.34 -0.6,8.57 0.9,11.48 0.08,0.15 0.09,0.29 0.06,0.41 C -1.35,0.03 -0.67,0.02 0,0"
             style="fill:#f6f6f6;fill-opacity:1;fill-rule:nonzero;stroke:none"
             id="path4404"
             inkscape:connector-curvature="0" />
        </g>
        <g
           id="g4406"
           transform="translate(510.61285,565.85715)">
          <path
             d="m 0,0 c -1.63,-1.76 -0.74,-5.53 -0.81,-7.67 -0.16,-4.34 -0.58,-8.67 -0.88,-13 -1.25,-0.34 -2.5,-0.68 -3.74,-1.06 0.55,7.24 1.19,14.6 1.35,21.85 C -3.59,0.1 -3.1,0.09 -2.61,0.07 -1.74,0.04 -0.87,0.02 0,0"
             style="fill:#f6f6f6;fill-opacity:1;fill-rule:nonzero;stroke:none"
             id="path4408"
             inkscape:connector-curvature="0" />
        </g>
        <g
           id="g4410"
           transform="translate(501.75285,566.12715)">
          <path
             d="M 0,0 C 1.14,-0.03 2.28,-0.07 3.43,-0.11 2.58,-7.35 2.49,-14.95 2.64,-22.23 c -1.34,-0.41 -2.86,-0.83 -4.41,-1.33 0.98,2.16 0.63,6.37 0.78,8.24 0.41,5.05 1.05,10.17 1,15.24 C 0.01,-0.05 0,-0.03 0,0"
             style="fill:#f6f6f6;fill-opacity:1;fill-rule:nonzero;stroke:none"
             id="path4412"
             inkscape:connector-curvature="0" />
        </g>
        <g
           id="g4414"
           transform="translate(496.58285,541.29715)">
          <path
             d="M 0,0 C 0.93,8.26 1.07,16.67 1.08,24.97 2.07,24.93 3.06,24.9 4.05,24.87 3.5,21.19 3.41,17.45 3.17,13.74 3.05,11.76 2.92,9.79 2.81,7.81 2.75,6.68 2.69,5.55 2.63,4.43 2.51,3.3 2.56,2.18 2.78,1.06 2.75,1.05 2.72,1.04 2.69,1.03 2.65,1.04 2.62,1.02 2.59,1 1.72,0.7 0.84,0.37 0,0"
             style="fill:#f6f6f6;fill-opacity:1;fill-rule:nonzero;stroke:none"
             id="path4416"
             inkscape:connector-curvature="0" />
        </g>
        <g
           id="g4418"
           transform="translate(492.67285,566.42715)">
          <path
             d="M 0,0 C 1.16,-0.04 2.32,-0.08 3.49,-0.12 3.22,-8.53 2.73,-16.98 2.71,-25.4 c 0,-0.1 0.02,-0.19 0.05,-0.27 C 1.78,-26.18 0.87,-26.76 0.09,-27.43 0.01,-18.29 -0.34,-9.16 0,0"
             style="fill:#f6f6f6;fill-opacity:1;fill-rule:nonzero;stroke:none"
             id="path4420"
             inkscape:connector-curvature="0" />
        </g>
        <g
           id="g4422"
           transform="translate(207.73285,564.34715)">
          <path
             d="m 0,0 c 0.17,-5.32 0.35,-10.64 0.53,-15.95 0.08,-2.27 0.93,-7.66 0.46,-12.02 -0.76,1.14 -1.84,2.11 -3.05,2.97 0.95,8.16 0.55,16.62 0.19,24.79 0,0.04 -0.02,0.08 -0.03,0.12 0.64,0.03 1.27,0.06 1.9,0.09"
             style="fill:#f6f6f6;fill-opacity:1;fill-rule:nonzero;stroke:none"
             id="path4424"
             inkscape:connector-curvature="0" />
        </g>
        <g
           id="g4426"
           transform="translate(204.70285,539.98715)">
          <path
             d="m 0,0 c -1.23,0.78 -2.55,1.45 -3.82,2.03 1.2,1.33 0.37,5.38 0.37,6.67 0.01,5.08 0.36,10.29 -0.04,15.36 1.03,0.05 2.06,0.1 3.09,0.14 0,-0.02 -0.01,-0.03 -0.01,-0.05 C 0.02,16.11 -0.3,8.04 0,0"
             style="fill:#f6f6f6;fill-opacity:1;fill-rule:nonzero;stroke:none"
             id="path4428"
             inkscape:connector-curvature="0" />
        </g>
        <g
           id="g4430"
           transform="translate(199.78285,547.84715)">
          <path
             d="m 0,0 c 0.01,-0.42 0.29,-4.05 0.49,-5.13 -0.07,0.03 -0.14,0.04 -0.2,0 -0.14,-0.08 -0.22,-0.13 -0.27,-0.22 -0.49,0.21 -0.96,0.42 -1.41,0.61 -0.47,0.2 -0.95,0.39 -1.43,0.58 0.03,6.67 0.17,13.53 -0.3,20.15 0.24,0.01 0.48,0.03 0.72,0.04 0.83,0.04 1.66,0.07 2.48,0.11 C -0.24,12.46 -0.06,8.69 -0.04,5 -0.03,3.33 -0.02,1.67 0,0"
             style="fill:#f6f6f6;fill-opacity:1;fill-rule:nonzero;stroke:none"
             id="path4432"
             inkscape:connector-curvature="0" />
        </g>
        <g
           id="g4434"
           transform="translate(195.43285,563.77715)">
          <path
             d="m 0,0 c -0.73,-6.34 -0.35,-13.27 0.45,-19.69 -1.17,0.43 -2.35,0.82 -3.55,1.18 0.38,5.85 0.63,12.03 0.15,17.83 -0.02,0.27 -0.18,0.44 -0.37,0.52 C -2.21,-0.11 -1.1,-0.05 0,0"
             style="fill:#f6f6f6;fill-opacity:1;fill-rule:nonzero;stroke:none"
             id="path4436"
             inkscape:connector-curvature="0" />
        </g>
        <g
           id="g4438"
           transform="translate(191.30285,563.09715)">
          <path
             d="m 0,0 c -0.47,-5.71 -0.24,-11.78 0.12,-17.55 -1.04,0.31 -2.08,0.6 -3.13,0.88 0.17,5.58 0.4,11.47 -0.23,16.99 1.19,0.06 2.38,0.11 3.56,0.17 C 0.15,0.41 0.02,0.25 0,0"
             style="fill:#f6f6f6;fill-opacity:1;fill-rule:nonzero;stroke:none"
             id="path4440"
             inkscape:connector-curvature="0" />
        </g>
        <g
           id="g4442"
           transform="translate(187.36286,546.67715)">
          <path
             d="m 0,0 c -1,0.25 -2,0.51 -3.01,0.76 0.32,5.26 0.37,10.55 0.36,15.81 0.73,0.04 1.46,0.07 2.19,0.11 C -0.85,11.24 -0.39,5.47 0,0"
             style="fill:#f6f6f6;fill-opacity:1;fill-rule:nonzero;stroke:none"
             id="path4444"
             inkscape:connector-curvature="0" />
        </g>
        <g
           id="g4446"
           transform="translate(180.76286,548.60715)">
          <path
             d="m 0,0 c 0.05,4.71 -0.03,9.44 -0.16,14.14 0,0.12 -0.02,0.21 -0.06,0.3 0.88,0.04 1.77,0.08 2.66,0.13 C 2.43,9.39 2.48,4.2 2.79,-0.97 1.84,-0.73 0.89,-0.49 -0.06,-0.25 -0.02,-0.18 0,-0.1 0,0"
             style="fill:#f6f6f6;fill-opacity:1;fill-rule:nonzero;stroke:none"
             id="path4448"
             inkscape:connector-curvature="0" />
        </g>
        <g
           id="g4450"
           transform="translate(179.24286,562.97715)">
          <path
             d="m 0,0 c -0.02,-0.07 -0.04,-0.14 -0.04,-0.23 0.11,-4.7 0.27,-9.44 0.55,-14.14 -0.77,0.19 -1.72,0.43 -2.8,0.72 0.21,4.34 0.68,9.25 -0.02,13.59 0.58,0 1.06,0 1.38,0.02 0.31,0.01 0.62,0.03 0.93,0.04"
             style="fill:#f6f6f6;fill-opacity:1;fill-rule:nonzero;stroke:none"
             id="path4452"
             inkscape:connector-curvature="0" />
        </g>
        <g
           id="g4454"
           transform="translate(176.16286,549.53715)">
          <path
             d="m 0,0 c -1.24,0.34 -2.58,0.73 -3.94,1.18 0.03,1.89 -0.05,3.78 -0.12,5.67 -0.04,1.1 -0.84,5.53 0.33,6.2 0.16,0.09 0.23,0.21 0.27,0.34 1.1,0.02 2.13,0.01 3.03,0 C -0.85,9.06 -0.22,4.34 0,0"
             style="fill:#f6f6f6;fill-opacity:1;fill-rule:nonzero;stroke:none"
             id="path4456"
             inkscape:connector-curvature="0" />
        </g>
        <g
           id="g4458"
           transform="translate(171.34286,551.01715)">
          <path
             d="m 0,0 c -1.28,0.45 -2.55,0.96 -3.75,1.53 l 0.04,0.08 c 0.1,-0.07 0.26,-0.05 0.28,0.1 0.27,1.64 0.1,3.33 0.13,4.99 0.03,1.66 0.27,3.34 0.27,5.01 0.8,0.07 1.62,0.12 2.43,0.15 C -0.89,11.16 -0.82,10.14 -0.78,9.43 -0.6,6.29 -0.4,3.12 0,0"
             style="fill:#f6f6f6;fill-opacity:1;fill-rule:nonzero;stroke:none"
             id="path4460"
             inkscape:connector-curvature="0" />
        </g>
        <g
           id="g4462"
           transform="translate(167.59286,552.54715)">
          <path
             d="m 0,0 c -1.09,0.51 -2.11,1.08 -3.01,1.71 -0.02,2.58 0.02,5.26 -0.15,7.85 0.79,0.21 1.67,0.36 2.6,0.48 C -0.77,8.57 -0.73,7.05 -0.7,5.58 -0.66,3.79 -0.66,1.87 -0.05,0.18 -0.03,0.13 0,0.1 0.04,0.08 Z"
             style="fill:#f6f6f6;fill-opacity:1;fill-rule:nonzero;stroke:none"
             id="path4464"
             inkscape:connector-curvature="0" />
        </g>
        <g
           id="g4466"
           transform="translate(163.59286,555.00715)">
          <path
             d="m 0,0 c -1.65,1.38 -2.7,3 -2.66,4.91 0.31,0.74 1.06,1.3 2.08,1.72 C -0.57,4.43 -0.31,2.16 0,0"
             style="fill:#f6f6f6;fill-opacity:1;fill-rule:nonzero;stroke:none"
             id="path4468"
             inkscape:connector-curvature="0" />
        </g>
        <g
           id="g4470"
           transform="translate(201.44285,538.28715)">
          <path
             d="m 0,0 c 1.4,-0.78 6.14,-3.88 6.03,-6.23 -0.49,-0.8 -1.14,-1.41 -2,-1.72 -0.21,0.14 -0.47,0.22 -0.81,0.22 -15.82,-0.22 -31.28,3.86 -47.01,5.17 -15.06,1.25 -30.24,1.06 -45.28,-0.49 -14.41,-1.49 -28.68,-4.21 -42.6,-8.19 -12.94,-3.7 -26.36,-8.26 -38.18,-14.92 8.04,14.5 14.47,30.03 21.41,45.06 0.4,0.87 0,1.68 -0.62,2.1 0.04,0.35 -0.09,0.72 -0.49,1 -5.93,4.08 -12.04,7.88 -17.83,12.16 -5.15,3.8 -9.71,8.52 -14.82,12.34 10.47,3.64 20.78,7.66 31.41,10.85 11.27,3.38 22.72,6.14 34.28,8.28 23.51,4.36 47.04,5.56 70.89,5.15 -0.96,-17.06 -1.02,-34.32 0.6,-51.24 0.09,-0.97 1.16,-1.26 1.76,-0.84 C -41.19,12.3 -29.41,9.14 -24.1,7.69 -18.84,6.24 -13.48,5.15 -8.28,3.48 -5.42,2.57 -2.63,1.46 0,0"
             style="fill:#f6f6f6;fill-opacity:1;fill-rule:nonzero;stroke:none"
             id="path4472"
             inkscape:connector-curvature="0" />
        </g>
        <g
           id="g4474"
           transform="translate(674.01285,517.15715)">
          <path
             d="m 0,0 c 0.53,-1.13 1.09,-2.98 1.98,-4.35 -28.82,8.4 -58.44,14.07 -88.3,17.13 -15.33,1.57 -30.74,2.46 -46.16,2.55 -7.7,0.04 -15.42,-0.21 -23.11,-0.53 -3.58,-0.15 -7.16,-0.33 -10.73,-0.56 -2.8,-0.18 -14.2,-2.55 -14.36,3.01 1.09,4.1 13.54,7.03 15.84,7.66 5.51,1.49 11.1,2.67 16.62,4.14 5.01,1.34 15.67,3.57 16.73,9.82 0.58,0.13 1.07,0.56 1.01,1.26 -0.15,1.59 -0.6,2.95 -1.27,4.12 -0.27,17.66 -0.72,35.31 -1.13,52.97 11.78,-1.25 23.77,-0.75 35.6,-1.58 12.26,-0.86 24.5,-2.23 36.64,-4.12 23.08,-3.58 45.79,-9.12 67.99,-16.34 -9.36,-8.99 -18.7,-19.38 -25.04,-30.73 -0.09,-0.16 -0.13,-0.33 -0.14,-0.49 -0.15,-0.13 -0.29,-0.28 -0.4,-0.45 -0.3,-0.46 -0.41,-1.06 -0.15,-1.68 4.04,-9.53 8.27,-18.98 12.42,-28.46 C -4.01,8.9 -2.07,4.42 0,0"
             style="fill:#f6f6f6;fill-opacity:1;fill-rule:nonzero;stroke:none"
             id="path4476"
             inkscape:connector-curvature="0" />
        </g>
        <g
           id="g4478"
           transform="translate(675.99285,512.80715)">
          <path
             d="m 0,0 c -0.89,1.37 -1.45,3.22 -1.98,4.35 -2.07,4.42 -4.01,8.9 -5.96,13.37 -4.15,9.48 -8.38,18.93 -12.42,28.46 -0.26,0.62 -0.15,1.22 0.15,1.68 l 2.76,-0.09 c 3.61,-8.12 7.08,-16.3 10.6,-24.45 1.71,-3.96 3.43,-7.92 5.11,-11.89 0.78,-1.87 5.43,-10.16 4.22,-11.7 z"
             style="fill:#1d1d1b;fill-opacity:1;fill-rule:nonzero;stroke:none"
             id="path4480"
             inkscape:connector-curvature="0" />
        </g>
        <g
           id="g4482"
           transform="translate(576.73285,612.79715)">
          <path
             d="m 0,0 c -11.83,0.83 -23.82,0.33 -35.6,1.58 l -0.04,1.8 C -23.96,4.96 -11.72,3.96 0,3.23 11.74,2.49 23.44,1.25 35.08,-0.48 c 24.36,-3.63 48.37,-9.37 71.73,-17.15 1.23,-0.41 1.4,-1.73 0.89,-2.59 0.38,-0.56 0.44,-1.33 -0.19,-1.96 -9.34,-9.49 -17.25,-19.81 -25.7,-30.04 l -2.76,0.09 c 0.11,0.17 0.25,0.32 0.4,0.45 0.01,0.16 0.05,0.33 0.14,0.49 6.34,11.35 15.68,21.74 25.04,30.73 C 82.43,-13.24 59.72,-7.7 36.64,-4.12 24.5,-2.23 12.26,-0.86 0,0"
             style="fill:#1d1d1b;fill-opacity:1;fill-rule:nonzero;stroke:none"
             id="path4484"
             inkscape:connector-curvature="0" />
        </g>
        <g
           id="g4486"
           transform="translate(71.262856,524.52715)">
          <path
             d="m 0,0 c -13.42,-3.77 -26.04,-9.16 -38.94,-14.25 l -0.73,1.85 c 11.82,6.66 25.24,11.22 38.18,14.92 13.92,3.98 28.19,6.7 42.6,8.19 15.04,1.55 30.22,1.74 45.28,0.49 15.73,-1.31 31.19,-5.39 47.01,-5.17 0.34,0 0.6,-0.08 0.81,-0.22 l 0.3,-1.97 C 134.29,3.5 133.93,3.23 133.4,3.19 117.72,2.03 101.96,6.8 86.39,8.15 72.1,9.39 57.69,9.36 43.4,8.05 28.73,6.69 14.18,3.99 0,0"
             style="fill:#1d1d1b;fill-opacity:1;fill-rule:nonzero;stroke:none"
             id="path4488"
             inkscape:connector-curvature="0" />
        </g>
        <g
           id="g4490"
           transform="translate(31.592856,512.12715)">
          <path
             d="m 0,0 0.73,-1.85 c -0.93,-0.37 -1.86,-0.74 -2.79,-1.1 -0.81,-0.32 -1.26,0.86 -0.67,1.34 -0.12,0.21 -0.15,0.46 -0.05,0.73 6.01,16.23 14.12,31.83 21.44,47.49 l 2.13,0.55 c 0.62,-0.42 1.02,-1.23 0.62,-2.1 C 14.47,30.03 8.04,14.5 0,0"
             style="fill:#1d1d1b;fill-opacity:1;fill-rule:nonzero;stroke:none"
             id="path4492"
             inkscape:connector-curvature="0" />
        </g>
        <g
           id="g4494"
           transform="translate(50.652856,595.63715)">
          <path
             d="m 0,0 c -10.63,-3.19 -20.94,-7.21 -31.41,-10.85 5.11,-3.82 9.67,-8.54 14.82,-12.34 5.79,-4.28 11.9,-8.08 17.83,-12.16 0.4,-0.28 0.53,-0.65 0.49,-1 L -0.4,-36.9 c -6.59,3.01 -12.66,7 -18.49,11.3 -5.45,4.02 -11.93,8.4 -16.09,13.78 -0.81,1.05 0.03,2.82 1.27,2.5 20.98,10.54 44.96,16.58 67.94,20.78 23.3,4.26 47.45,6.42 71.13,5.13 0.21,3.35 0.46,6.69 0.73,10.02 0.59,7.26 0.44,16.06 5.87,21.66 4.81,4.95 12.11,6.17 18.7,6.62 18.67,1.25 37.55,0.97 56.26,1.42 19.09,0.45 38.19,0.91 57.28,1.33 38.8,0.85 77.61,1.5 116.42,1.29 19.39,-0.1 38.78,-0.42 58.17,-1.02 9.55,-0.3 19.09,-0.65 28.63,-1.09 8.8,-0.41 17.9,-0.33 26.62,-1.67 6.36,-0.97 11.73,-3.98 14.19,-10.18 2.77,-6.95 2,-15.3 2.17,-22.61 0.01,-0.61 0.03,-1.21 0.04,-1.82 l 0.04,-1.8 c 0.41,-17.66 0.86,-35.31 1.13,-52.97 0.67,-1.17 1.12,-2.53 1.27,-4.12 0.06,-0.7 -0.43,-1.13 -1.01,-1.26 -1.06,-6.25 -11.72,-8.48 -16.73,-9.82 -5.52,-1.47 -11.11,-2.65 -16.62,-4.14 -2.3,-0.63 -14.75,-3.56 -15.84,-7.66 0.16,-5.56 11.56,-3.19 14.36,-3.01 3.57,0.23 7.15,0.41 10.73,0.56 7.69,0.32 15.41,0.57 23.11,0.53 15.42,-0.09 30.83,-0.98 46.16,-2.55 29.86,-3.06 59.48,-8.73 88.3,-17.13 l 2.48,-0.27 c 0.33,0.42 1.15,0.07 1.08,-0.45 l -0.03,-0.34 c -0.05,-0.4 -0.31,-0.72 -0.74,-0.73 -0.16,-0.01 -0.32,0.01 -0.47,0.03 0.06,-1.01 -0.75,-2.09 -2.01,-1.73 -33.25,9.49 -67.28,15.83 -101.77,18.45 -17,1.29 -34.12,1.86 -51.16,1.5 -8.17,-0.18 -16.38,-1.11 -24.53,-1.11 -1.88,0 -4.34,0.68 -5.85,1.95 -0.08,0.02 -0.15,0.03 -0.23,0.06 -1.95,0.89 -2.65,2.73 -2.42,4.59 -1.57,10.45 -1.37,21.23 -0.83,31.77 -8.29,0.25 -16.59,0.47 -24.89,0.67 -50.9,1.19 -101.83,1.34 -152.74,0.44 -25.45,-0.45 -50.9,-1.15 -76.34,-2.12 -8.34,-0.31 -16.68,-0.67 -25.02,-1.04 0.3,-8.89 0.73,-17.79 0.73,-26.68 -0.01,-4.11 -1.29,-8.89 -5.48,-9.43 l -0.3,1.97 c 0.86,0.31 1.51,0.92 2,1.72 0.11,2.35 -4.63,5.45 -6.03,6.23 -2.63,1.46 -5.42,2.57 -8.28,3.48 -5.2,1.67 -10.56,2.76 -15.82,4.21 -5.31,1.45 -17.09,4.61 -19.16,11.01 -0.6,-0.42 -1.67,-0.13 -1.76,0.84 -1.62,16.92 -1.56,34.18 -0.6,51.24 C 81.32,13.84 57.79,12.64 34.28,8.28 22.72,6.14 11.27,3.38 0,0 m 112.36,-34 c -1.02,-0.42 -1.77,-0.98 -2.08,-1.72 -0.04,-1.91 1.01,-3.53 2.66,-4.91 -0.31,2.16 -0.57,4.43 -0.58,6.63 m 16.44,85.74 c -7.35,-0.72 -15.24,-3.07 -17.79,-10.83 -2.63,-8.03 -2.27,-17.77 -2.78,-26.15 -0.96,-16.18 -0.69,-32.29 -0.38,-48.47 0.31,0.65 0.93,0.91 1.49,0.83 1.12,1.24 3,1.99 4.76,2.35 7.07,1.44 15.02,0.99 22.23,1.37 15.6,0.83 31.21,1.51 46.82,2.11 56.09,2.15 112.22,3.05 168.34,2.67 27.78,-0.18 55.55,-0.67 83.31,-1.48 13.63,-0.39 27.37,-0.44 40.98,-1.42 4.23,-0.3 9.21,-1.21 12.71,-3.66 -0.57,18.91 -0.96,37.83 -1.4,56.74 -0.2,8.32 1,20.27 -7.94,24.6 -4.1,1.99 -9.06,1.94 -13.51,2.2 -4.92,0.29 -9.83,0.55 -14.75,0.8 -72.02,3.69 -144.18,2.63 -216.24,1.01 -17.93,-0.4 -35.86,-0.83 -53.79,-1.26 -8.96,-0.21 -17.91,-0.42 -26.86,-0.63 -8.37,-0.2 -16.87,0.04 -25.2,-0.78 m -15.02,-85.27 c 0.17,-2.59 0.13,-5.27 0.15,-7.85 0.9,-0.63 1.92,-1.2 3.01,-1.71 1.2,-0.57 2.47,-1.08 3.75,-1.53 -0.4,3.12 -0.6,6.29 -0.78,9.43 -0.04,0.71 -0.11,1.73 0.18,2.43 -0.81,-0.03 -1.63,-0.08 -2.43,-0.15 0,-1.67 -0.24,-3.35 -0.27,-5.01 -0.03,-1.66 0.14,-3.35 -0.13,-4.99 -0.02,-0.15 -0.18,-0.17 -0.28,-0.1 -0.04,0.02 -0.07,0.05 -0.09,0.1 -0.61,1.69 -0.61,3.61 -0.65,5.4 -0.03,1.47 -0.07,2.99 0.14,4.46 -0.93,-0.12 -1.81,-0.27 -2.6,-0.48 m 8,0.48 c -1.17,-0.67 -0.37,-5.1 -0.33,-6.2 0.07,-1.89 0.15,-3.78 0.12,-5.67 1.36,-0.45 2.7,-0.84 3.94,-1.18 -0.22,4.34 -0.85,9.06 -0.43,13.39 -0.9,0.01 -1.93,0.02 -3.03,0 -0.04,-0.13 -0.11,-0.25 -0.27,-0.34 m 6.77,0.16 c 0,0.09 0.02,0.16 0.04,0.23 -0.31,-0.01 -0.62,-0.03 -0.93,-0.04 -0.32,-0.02 -0.8,-0.02 -1.38,-0.02 0.7,-4.34 0.23,-9.25 0.02,-13.59 1.08,-0.29 2.03,-0.53 2.8,-0.72 -0.28,4.7 -0.44,9.44 -0.55,14.14 m 1.4,0 c 0.13,-4.7 0.21,-9.43 0.16,-14.14 0,-0.1 -0.02,-0.18 -0.06,-0.25 0.95,-0.24 1.9,-0.48 2.85,-0.72 -0.31,5.17 -0.36,10.36 -0.35,15.54 -0.89,-0.05 -1.78,-0.09 -2.66,-0.13 0.04,-0.09 0.06,-0.18 0.06,-0.3 m 10.82,-17.2 c -0.36,5.77 -0.59,11.84 -0.12,17.55 0.02,0.25 0.15,0.41 0.32,0.49 -1.18,-0.06 -2.37,-0.11 -3.56,-0.17 0.63,-5.52 0.4,-11.41 0.23,-16.99 1.05,-0.28 2.09,-0.57 3.13,-0.88 m 4.46,-1.46 c -0.8,6.42 -1.18,13.35 -0.45,19.69 -1.1,-0.05 -2.21,-0.11 -3.32,-0.16 0.19,-0.08 0.35,-0.25 0.37,-0.52 0.48,-5.8 0.23,-11.98 -0.15,-17.83 1.2,-0.36 2.38,-0.75 3.55,-1.18 m -8.52,2.59 c -0.39,5.47 -0.85,11.24 -0.46,16.68 -0.73,-0.04 -1.46,-0.07 -2.19,-0.11 0.01,-5.26 -0.04,-10.55 -0.36,-15.81 1.01,-0.25 2.01,-0.51 3.01,-0.76 m 13.85,17.37 c 0.4,-5.07 0.05,-10.28 0.04,-15.36 0,-1.29 0.83,-5.34 -0.37,-6.67 1.27,-0.58 2.59,-1.25 3.82,-2.03 -0.3,8.04 0.02,16.11 -0.41,24.15 0,0.02 0.01,0.03 0.01,0.05 -1.03,-0.04 -2.06,-0.09 -3.09,-0.14 m -0.94,-21.33 c -0.2,1.08 -0.48,4.71 -0.49,5.13 -0.02,1.67 -0.03,3.33 -0.04,5 -0.02,3.69 -0.2,7.46 0.12,11.14 -0.82,-0.04 -1.65,-0.07 -2.48,-0.11 -0.24,-0.01 -0.48,-0.03 -0.72,-0.04 0.47,-6.62 0.33,-13.48 0.3,-20.15 0.48,-0.19 0.96,-0.38 1.43,-0.58 0.45,-0.19 0.92,-0.4 1.41,-0.61 0.05,0.09 0.13,0.14 0.27,0.22 0.06,0.04 0.13,0.03 0.2,0 m 8.45,-6.34 c 0.47,4.36 -0.38,9.75 -0.46,12.02 -0.18,5.31 -0.36,10.63 -0.53,15.95 -0.63,-0.03 -1.26,-0.06 -1.9,-0.09 0.01,-0.04 0.03,-0.08 0.03,-0.12 0.36,-8.17 0.76,-16.63 -0.19,-24.79 1.21,-0.86 2.29,-1.83 3.05,-2.97 m 284.04,2.62 c 0.78,0.67 1.69,1.25 2.67,1.76 -0.03,0.08 -0.05,0.17 -0.05,0.27 0.02,8.42 0.51,16.87 0.78,25.28 -1.17,0.04 -2.33,0.08 -3.49,0.12 -0.34,-9.16 0.01,-18.29 0.09,-27.43 m 12.42,27.02 c -1.15,0.04 -2.29,0.08 -3.43,0.11 0,-0.03 0.01,-0.05 0.01,-0.08 0.05,-5.07 -0.59,-10.19 -1,-15.24 -0.15,-1.87 0.2,-6.08 -0.78,-8.24 1.55,0.5 3.07,0.92 4.41,1.33 -0.15,7.28 -0.06,14.88 0.79,22.12 M 449.1,-40.6 c 0.24,3.71 0.33,7.45 0.88,11.13 -0.99,0.03 -1.98,0.06 -2.97,0.1 -0.01,-8.3 -0.15,-16.71 -1.08,-24.97 0.84,0.37 1.72,0.7 2.59,1 0.03,0.02 0.06,0.04 0.1,0.03 0.03,0.01 0.06,0.02 0.09,0.03 -0.22,1.12 -0.27,2.24 -0.15,3.37 0.06,1.12 0.12,2.25 0.18,3.38 0.11,1.98 0.24,3.95 0.36,5.93 m 9.17,-9.85 c 0.3,4.33 0.72,8.66 0.88,13 0.07,2.14 -0.82,5.91 0.81,7.67 -0.87,0.02 -1.74,0.04 -2.61,0.07 -0.49,0.02 -0.98,0.03 -1.47,0.05 -0.16,-7.25 -0.8,-14.61 -1.35,-21.85 1.24,0.38 2.49,0.72 3.74,1.06 m 5.15,1.32 c -1.02,6.06 -0.83,13.19 -0.22,19.27 -0.67,0.02 -1.35,0.03 -2.03,0.05 0.03,-0.12 0.02,-0.26 -0.06,-0.41 -1.5,-2.91 -0.62,-8.14 -0.9,-11.48 -0.24,-2.85 -0.57,-5.69 -1.06,-8.51 1.42,0.37 2.85,0.73 4.27,1.08 m 10.28,2.5 c -0.66,5.2 -0.69,11.18 -0.21,16.4 -1.16,0.07 -2.32,0.13 -3.49,0.17 0.26,-5.79 0,-11.72 -0.18,-17.53 1,0.25 2,0.49 2.99,0.74 0.29,0.07 0.59,0.15 0.89,0.22 m 1.04,16.3 c 0.47,-5.13 0.44,-10.97 -0.19,-16.1 1.13,0.27 2.33,0.54 3.55,0.86 1.24,0.32 2.5,0.69 3.71,1.13 -0.22,4.29 -0.5,8.92 0.16,13.06 -0.95,0.25 -1.91,0.45 -2.86,0.6 -0.09,-4.73 -0.72,-9.42 -0.69,-14.18 0,-0.27 -0.17,-0.42 -0.36,-0.45 -0.26,-0.05 -0.57,0.11 -0.6,0.45 -0.4,4.6 -0.65,9.8 0.38,14.36 -0.32,0.04 -0.64,0.07 -0.96,0.1 -0.71,0.07 -1.42,0.12 -2.14,0.17 m -5.96,-17.51 c -0.31,5.88 -0.54,11.97 -0.07,17.83 -1.37,0.05 -2.75,0.09 -4.12,0.12 0.26,-6.11 0.37,-12.96 -0.41,-19.06 1.53,0.37 3.06,0.74 4.6,1.11 m 17.18,10.43 c 0.03,1.49 -0.24,3.01 -0.1,4.48 -0.87,0.5 -1.8,0.9 -2.78,1.22 0.46,-3.93 0.08,-8.28 -0.26,-12.35 0.96,0.39 1.87,0.85 2.72,1.36 -0.03,0.08 -0.05,0.16 -0.04,0.25 0.24,1.67 0.42,3.36 0.46,5.04 m 3.99,-0.18 c -0.11,0.31 -0.23,0.61 -0.37,0.9 -0.52,0.19 -0.94,0.64 -0.96,1.35 0,0.05 0,0.1 -0.01,0.15 -0.37,0.46 -0.8,0.88 -1.27,1.26 0.41,-2.58 -0.13,-5.61 -0.79,-8.09 1.53,1.14 2.74,2.56 3.4,4.43"
             style="fill:#1d1d1b;fill-opacity:1;fill-rule:nonzero;stroke:none"
             id="path4496"
             inkscape:connector-curvature="0" />
        </g>
        <g
           id="g4506"
           transform="translate(71.441161,435.62251)" />
      </g>
    </g>
  </g>
</svg>
